<svg width="95" height="145" viewBox="0 0 95 145" fill="none" xmlns="http://www.w3.org/2000/svg">
<path d="M46.648 145C42.7227 145 38.9253 143.379 35.256 140.136C31.672 136.893 28.6427 132.2 26.168 126.056C23.7787 119.912 22.3707 112.488 21.944 103.784C19.2987 104.04 16.8667 104.168 14.648 104.168C9.69867 104.168 6.072 103.528 3.768 102.248C1.54933 100.968 0.44 99.304 0.44 97.256C0.44 95.208 1.42133 92.9467 3.384 90.472C5.34667 87.9973 8.07733 85.5227 11.576 83.048C15.0747 80.488 19.1707 78.184 23.864 76.136C25.4853 67.432 28.088 58.0453 31.672 47.976C35.3413 37.8213 40.248 27.0693 46.392 15.72C46.9893 14.6107 47.8853 14.056 49.08 14.056C49.848 14.056 50.5307 14.312 51.128 14.824C51.7253 15.336 52.024 16.0187 52.024 16.872C52.024 17.2987 51.896 17.8533 51.64 18.536C46.1787 29.544 41.6133 39.656 37.944 48.872C34.36 58.0027 31.544 66.3653 29.496 73.96C33.336 72.5093 37.432 71.3147 41.784 70.376C46.136 69.4373 50.5733 68.8827 55.096 68.712C56.2907 68.712 56.888 68.8827 56.888 69.224C56.888 69.5653 56.4613 69.9067 55.608 70.248C54.84 70.504 53.5173 70.6747 51.64 70.76C47.4587 71.016 43.448 71.6133 39.608 72.552C35.8533 73.4053 32.312 74.472 28.984 75.752C27.704 80.7013 26.7227 85.3093 26.04 89.576C25.3573 93.7573 24.9307 97.64 24.76 101.224C33.5493 99.3467 41.528 96.616 48.696 93.032C55.9493 89.3627 62.3493 85.1387 67.896 80.36C73.4427 75.5813 78.0933 70.632 81.848 65.512C84.2373 62.2693 85.944 59.4107 86.968 56.936C88.0773 54.376 88.632 52.1573 88.632 50.28C88.632 47.5493 87.7787 45.416 86.072 43.88C84.3653 42.2587 82.104 41.1067 79.288 40.424C76.472 39.656 73.4 39.272 70.072 39.272C66.5733 39.272 63.032 39.6133 59.448 40.296C55.864 40.8933 52.6213 41.7467 49.72 42.856C49.0373 43.0267 48.568 43.112 48.312 43.112C47.2027 43.112 46.648 42.728 46.648 41.96C46.648 41.192 47.1173 40.5947 48.056 40.168C58.552 34.1947 66.0187 28.776 70.456 23.912C74.8933 19.048 77.112 14.952 77.112 11.624C77.112 8.72266 75.7467 6.504 73.016 4.96799C70.3707 3.34666 66.872 2.536 62.52 2.536C59.1067 2.536 55.2667 3.09066 51 4.2C46.7333 5.30933 42.3387 7.10133 37.816 9.576C34.0613 11.624 30.648 14.056 27.576 16.872C24.5893 19.6027 22.0293 22.4613 19.896 25.448C17.848 28.3493 16.312 31.1227 15.288 33.768C14.264 36.328 13.88 38.504 14.136 40.296C14.136 40.4667 14.136 40.68 14.136 40.936C14.2213 41.1067 14.264 41.2773 14.264 41.448C14.264 43.5813 13.624 44.648 12.344 44.648C11.7467 44.648 11.1067 44.2213 10.424 43.368C9.82667 42.5147 9.528 41.2347 9.528 39.528C9.528 36.968 10.296 34.2373 11.832 31.336C13.4533 28.4347 15.5867 25.5333 18.232 22.632C20.9627 19.6453 23.992 16.872 27.32 14.312C30.648 11.6667 34.104 9.40533 37.688 7.52799C42.296 5.05333 46.8187 3.21866 51.256 2.02399C55.7787 0.829328 59.9173 0.231995 63.672 0.231995C68.8773 0.231995 73.1013 1.25599 76.344 3.30399C79.5867 5.352 81.208 8.21067 81.208 11.88C81.208 15.2933 79.544 19.2613 76.216 23.784C72.888 28.3067 67.2987 33.2987 59.448 38.76C62.0933 38.3333 64.568 38.0347 66.872 37.864C69.176 37.608 71.3093 37.48 73.272 37.48C80.6107 37.48 85.9013 38.7173 89.144 41.192C92.472 43.5813 94.136 46.696 94.136 50.536C94.136 53.352 93.3253 56.424 91.704 59.752C90.168 62.9947 87.992 66.3653 85.176 69.864C81.08 74.8987 75.9173 79.7627 69.688 84.456C63.544 89.1493 56.632 93.2027 48.952 96.616C41.3573 100.029 33.2507 102.333 24.632 103.528C24.4613 111.123 25.144 117.395 26.68 122.344C28.3013 127.293 30.3493 131.133 32.824 133.864C35.2987 136.68 37.7733 138.643 40.248 139.752C42.7227 140.947 44.7707 141.544 46.392 141.544C47.5867 141.544 48.3973 141.331 48.824 140.904C49.1653 140.477 49.6773 140.264 50.36 140.264C51.0427 140.264 51.6827 140.52 52.28 141.032C52.8773 141.544 53.176 142.099 53.176 142.696C53.176 143.208 52.8773 143.592 52.28 143.848C50.4027 144.616 48.5253 145 46.648 145ZM15.16 102.504C16.0987 102.504 17.1227 102.419 18.232 102.248C19.3413 102.163 20.536 102.035 21.816 101.864C21.7307 98.28 21.816 94.5253 22.072 90.6C22.328 86.6747 22.7973 82.5787 23.48 78.312C18.0187 81.128 13.7093 84.2853 10.552 87.784C7.39467 91.1973 5.816 94.2267 5.816 96.872C5.816 98.4933 6.584 99.816 8.12 100.84C9.656 101.949 12.0027 102.504 15.16 102.504Z" fill="#FF5F15"/>
</svg>
